<?xml version="1.0" encoding="UTF-8" standalone="no"?>
<svg
   width="370.3903743315508"
   height="75.2713381245387"
   viewBox="0 0 370.3903743315508 75.2713381245387"
   class="css-1j8o68f"
   version="1.1"
   id="svg48"
   sodipodi:docname="logo.svg"
   inkscape:version="1.2.2 (b0a8486541, 2022-12-01)"
   xmlns:inkscape="http://www.inkscape.org/namespaces/inkscape"
   xmlns:sodipodi="http://sodipodi.sourceforge.net/DTD/sodipodi-0.dtd"
   xmlns="http://www.w3.org/2000/svg"
   xmlns:svg="http://www.w3.org/2000/svg">
  <sodipodi:namedview
     id="namedview50"
     pagecolor="#ffffff"
     bordercolor="#666666"
     borderopacity="1.0"
     inkscape:showpageshadow="2"
     inkscape:pageopacity="0.0"
     inkscape:pagecheckerboard="0"
     inkscape:deskcolor="#d1d1d1"
     showgrid="false"
     inkscape:zoom="3.3748177"
     inkscape:cx="185.19519"
     inkscape:cy="37.631663"
     inkscape:window-width="1920"
     inkscape:window-height="993"
     inkscape:window-x="0"
     inkscape:window-y="25"
     inkscape:window-maximized="1"
     inkscape:current-layer="svg48" />
  <defs
     id="SvgjsDefs2622" />
  <g
     id="SvgjsG2623"
     featurekey="symbolFeature-0"
     transform="matrix(0.8734402852049911,0,0,0.8734402852049911,-4.367201426024955,-6.036346030957771)"
     fill="#ffffff">
    <g
       id="g39">
      <path
         d="M15.321,30.396h22.846c0.828,0,1.5-0.671,1.5-1.5V16.741c0-0.829-0.672-1.5-1.5-1.5H22.688c-0.828,0-1.5,0.671-1.5,1.5   s0.672,1.5,1.5,1.5h13.979v9.156H16.821v-9.156h1.928c0.828,0,1.5-0.671,1.5-1.5s-0.672-1.5-1.5-1.5h-3.428   c-0.828,0-1.5,0.671-1.5,1.5v12.156C13.821,29.725,14.493,30.396,15.321,30.396z"
         id="path3" />
      <path
         d="M86.584,6.911H13.416C8.775,6.911,5,10.687,5,15.327v69.346c0,4.641,3.775,8.416,8.416,8.416h73.168   c4.641,0,8.416-3.775,8.416-8.416V15.327C95,10.687,91.225,6.911,86.584,6.911z M13.416,10.911h73.168   c2.435,0,4.416,1.981,4.416,4.416V53.17H9V15.327C9,12.892,10.981,10.911,13.416,10.911z M22.19,77.125   c0.585,0,1.06-0.474,1.06-1.06V56.57h4.357v19.495c0,0.585,0.474,1.06,1.06,1.06h1.204v11.964h-8.885V77.125H22.19z M33.271,77.125   h1.205c0.585,0,1.06-0.474,1.06-1.06V56.57h6.622v32.519h-8.886V77.125z M45.558,56.57h6.302v19.495c0,0.585,0.474,1.06,1.06,1.06   h1.523v11.964h-8.885V56.57z M57.843,77.125h0.886c0.585,0,1.06-0.474,1.06-1.06V56.57h4.676v19.495c0,0.585,0.474,1.06,1.06,1.06   h1.205v11.964h-8.886V77.125z M70.129,77.125h1.204c0.585,0,1.06-0.474,1.06-1.06V56.57h4.357v19.495c0,0.585,0.474,1.06,1.06,1.06   h1.204v11.964h-8.885V77.125z M9,84.673V56.57h6.321v19.495c0,0.585,0.474,1.06,1.06,1.06h1.205v11.964h-4.17   C10.981,89.089,9,87.108,9,84.673z M86.584,89.089h-4.17V77.125h1.205c0.585,0,1.06-0.474,1.06-1.06V56.57H91v28.103   C91,87.108,89.019,89.089,86.584,89.089z"
         id="path5" />
      <path
         d="M48.942,39.299v-4.924c0-0.718-0.582-1.3-1.3-1.3s-1.3,0.582-1.3,1.3v4.924c0,0.718,0.582,1.3,1.3,1.3   S48.942,40.017,48.942,39.299z"
         id="path7" />
      <path
         d="M46.343,30.172V31c0,0.718,0.582,1.3,1.3,1.3s1.3-0.582,1.3-1.3v-0.827c1.79-0.558,3.101-2.211,3.101-4.182   c0-1.971-1.311-3.624-3.101-4.183v-5.067c0-0.718-0.582-1.3-1.3-1.3s-1.3,0.582-1.3,1.3v5.067c-1.79,0.558-3.102,2.211-3.102,4.183   C43.241,27.961,44.553,29.614,46.343,30.172z M47.643,24.589c0.772,0,1.4,0.628,1.4,1.401c0,0.772-0.628,1.4-1.4,1.4   s-1.401-0.628-1.401-1.4C46.241,25.218,46.87,24.589,47.643,24.589z"
         id="path9" />
      <path
         d="M57.558,30.172v9.127c0,0.718,0.582,1.3,1.3,1.3s1.3-0.582,1.3-1.3v-9.127c1.79-0.558,3.101-2.211,3.101-4.182   c0-1.971-1.311-3.624-3.101-4.183v-5.067c0-0.718-0.582-1.3-1.3-1.3s-1.3,0.582-1.3,1.3v5.067c-1.79,0.558-3.102,2.211-3.102,4.183   C54.456,27.961,55.768,29.614,57.558,30.172z M58.857,24.589c0.772,0,1.4,0.628,1.4,1.401c0,0.772-0.628,1.4-1.4,1.4   s-1.401-0.628-1.401-1.4C57.456,25.218,58.085,24.589,58.857,24.589z"
         id="path11" />
      <path
         d="M71.371,39.299v-1.611c0-0.718-0.582-1.3-1.3-1.3s-1.3,0.582-1.3,1.3v1.611c0,0.718,0.582,1.3,1.3,1.3   S71.371,40.017,71.371,39.299z"
         id="path13" />
      <path
         d="M68.771,30.172v4.203c0,0.718,0.582,1.3,1.3,1.3s1.3-0.582,1.3-1.3v-4.203c1.79-0.558,3.102-2.211,3.102-4.182   c0-1.971-1.312-3.624-3.102-4.183v-5.067c0-0.718-0.582-1.3-1.3-1.3s-1.3,0.582-1.3,1.3v5.067c-1.79,0.558-3.101,2.211-3.101,4.183   C65.671,27.961,66.982,29.614,68.771,30.172z M70.071,24.589c0.772,0,1.401,0.628,1.401,1.401c0,0.772-0.629,1.4-1.401,1.4   s-1.4-0.628-1.4-1.4C68.671,25.218,69.299,24.589,70.071,24.589z"
         id="path15" />
      <path
         d="M79.986,30.172v9.127c0,0.718,0.582,1.3,1.3,1.3s1.3-0.582,1.3-1.3v-9.127c1.79-0.558,3.102-2.211,3.102-4.182   c0-1.971-1.312-3.624-3.102-4.183v-5.067c0-0.718-0.582-1.3-1.3-1.3s-1.3,0.582-1.3,1.3v5.067c-1.79,0.558-3.101,2.211-3.101,4.183   C76.886,27.961,78.197,29.614,79.986,30.172z M81.286,24.589c0.772,0,1.401,0.628,1.401,1.401c0,0.772-0.629,1.4-1.401,1.4   s-1.4-0.628-1.4-1.4C79.886,25.218,80.514,24.589,81.286,24.589z"
         id="path17" />
      <path
         d="M19.933,34.5h-4.132c-0.265,0-0.479,0.215-0.479,0.479v4.179c0,0.265,0.215,0.479,0.479,0.479h4.132   c0.265,0,0.479-0.215,0.479-0.479v-4.179C20.412,34.715,20.198,34.5,19.933,34.5z"
         id="path19" />
      <path
         d="M28.81,34.5h-4.132c-0.265,0-0.479,0.215-0.479,0.479v4.179c0,0.265,0.215,0.479,0.479,0.479h4.132   c0.265,0,0.479-0.215,0.479-0.479v-4.179C29.289,34.715,29.075,34.5,28.81,34.5z"
         id="path21" />
      <path
         d="M37.688,34.5h-4.132c-0.265,0-0.479,0.215-0.479,0.479v4.179c0,0.265,0.214,0.479,0.479,0.479h4.132   c0.265,0,0.479-0.215,0.479-0.479v-4.179C38.167,34.715,37.952,34.5,37.688,34.5z"
         id="path23" />
      <path
         d="M19.933,43.125h-4.132c-0.265,0-0.479,0.215-0.479,0.479v4.179c0,0.265,0.215,0.479,0.479,0.479h4.132   c0.265,0,0.479-0.215,0.479-0.479v-4.179C20.412,43.34,20.198,43.125,19.933,43.125z"
         id="path25" />
      <path
         d="M28.81,43.125h-4.132c-0.265,0-0.479,0.215-0.479,0.479v4.179c0,0.265,0.215,0.479,0.479,0.479h4.132   c0.265,0,0.479-0.215,0.479-0.479v-4.179C29.289,43.34,29.075,43.125,28.81,43.125z"
         id="path27" />
      <path
         d="M37.688,43.125h-4.132c-0.265,0-0.479,0.215-0.479,0.479v4.179c0,0.265,0.214,0.479,0.479,0.479h4.132   c0.265,0,0.479-0.215,0.479-0.479v-4.179C38.167,43.34,37.952,43.125,37.688,43.125z"
         id="path29" />
      <circle
         cx="47.642"
         cy="45.808"
         r="2.455"
         id="circle31" />
      <circle
         cx="58.857"
         cy="45.808"
         r="2.455"
         id="circle33" />
      <circle
         cx="70.072"
         cy="45.808"
         r="2.455"
         id="circle35" />
      <circle
         cx="81.286"
         cy="45.808"
         r="2.455"
         id="circle37" />
    </g>
  </g>
  <g
     id="SvgjsG2624"
     featurekey="nameFeature-0"
     transform="matrix(1.8437828857331022,0,0,1.8437828857331022,92.84379667497923,-29.253067322060925)"
     fill="#ffffff">
    <path
       d="M8.916 22.009 c-0.43632 0.24117 -0.88236 0.64612 -0.88236 1.8193 c0 0.91448 0.29558 1.4144 1.0547 1.7822 c0.76772 0.37195 1.6239 0.39914 1.6671 0.4002 l17.067 0.06672 c2.9656 0 7.3912 1.8316 7.3912 6.8776 s-4.1128 6.8776 -6.8776 6.8776 l-24.997 0 l0 -4.6954 l24.977 0 c0.2048 -0.0070704 0.81636 -0.08422 1.3204 -0.36305 c0.43656 -0.24144 0.88256 -0.64636 0.88256 -1.8193 c0 -0.91448 -0.29558 -1.4144 -1.0547 -1.7822 c-0.7654 -0.37094 -1.6208 -0.39894 -1.6686 -0.40024 l-17.056 -0.07586 l0 0.0091406 c-2.975 0 -7.4008 -1.8316 -7.4008 -6.8776 s4.1128 -6.8776 6.8776 -6.8776 l24.997 0 l0 4.6954 l-24.976 0 c-0.20457 0.0070704 -0.81668 0.08422 -1.321 0.36305 z M71.769 19.299 c1.8355 1.8198 1.8204 4.452 1.7971 8.4364 c-0.0018359 0.29664 -0.0033984 0.604 -0.0046876 0.92236 c-0.0089064 2.3647 -0.015195 4.0732 -0.26344 5.514 c-0.21137 1.2284 -0.69948 2.9991 -2.4872 4.1908 c-2.2642 1.5093 -5.6464 1.5434 -13.056 1.6174 c-1.1572 0.011524 -2.2245 0.020156 -3.2091 0.020156 c-5.8708 0 -8.822 -0.31074 -10.708 -2.1844 c-1.964 -1.9514 -1.953 -4.8252 -1.9368 -9.1752 c0.018047 -4.8536 0.029024 -7.7832 2.4894 -9.602 c2.1227 -1.569 5.2056 -1.6103 11.96 -1.7011 l1.3479 -0.018555 c8.4176 -0.12031 11.902 -0.17027 14.071 1.9805 z M68.903 27.708 c0.013086 -2.2896 0.026914 -4.6576 -0.41728 -5.0976 c-0.55112 -0.54644 -3.0246 -0.67276 -6.3168 -0.67276 c-1.3547 0 -2.8484 0.021445 -4.4036 0.043672 l-1.3521 0.018555 c-4.8388 0.064884 -8.3348 0.11195 -9.25 0.78812 c-0.5776 0.42692 -0.587 2.9488 -0.59796 5.8692 c-0.010195 2.7118 -0.019883 5.2732 0.56032 5.8496 c0.9108 0.90508 5.8276 0.85564 10.583 0.80856 c5.4604 -0.054412 9.4056 -0.093908 10.516 -0.8342 c0.65372 -0.4358 0.66208 -2.7032 0.67384 -5.8416 c0.0010547 -0.32148 0.0028906 -0.632 0.0047264 -0.93176 z M84.95400000000001 35.238 l27.18 0 l0 4.6954 l-31.875 0 l0 -22.815 l4.6954 0 l0 18.119 z M148.729 19.299 c1.8355 1.8198 1.8204 4.452 1.7971 8.4364 c-0.0018359 0.29664 -0.0033984 0.604 -0.0046876 0.92236 c-0.0089064 2.3647 -0.015195 4.0732 -0.26344 5.514 c-0.21137 1.2284 -0.69948 2.9991 -2.4872 4.1908 c-2.2642 1.5093 -5.6464 1.5434 -13.056 1.6174 c-1.1572 0.011524 -2.2245 0.020156 -3.2091 0.020156 c-5.8708 0 -8.822 -0.31074 -10.708 -2.1844 c-1.964 -1.9514 -1.953 -4.8252 -1.9368 -9.1752 c0.018047 -4.8536 0.029024 -7.7832 2.4894 -9.602 c2.1227 -1.569 5.2056 -1.6103 11.96 -1.7011 l1.3479 -0.018555 c8.4176 -0.12031 11.902 -0.17027 14.071 1.9805 z M145.863 27.708 c0.013086 -2.2896 0.026914 -4.6576 -0.41728 -5.0976 c-0.55112 -0.54644 -3.0246 -0.67276 -6.3168 -0.67276 c-1.3547 0 -2.8484 0.021445 -4.4036 0.043672 l-1.3521 0.018555 c-4.8388 0.064884 -8.3348 0.11195 -9.25 0.78812 c-0.5776 0.42692 -0.587 2.9488 -0.59796 5.8692 c-0.010195 2.7118 -0.019883 5.2732 0.56032 5.8496 c0.9108 0.90508 5.8276 0.85564 10.583 0.80856 c5.4604 -0.054412 9.4056 -0.093908 10.516 -0.8342 c0.65372 -0.4358 0.66208 -2.7032 0.67384 -5.8416 c0.0010547 -0.32148 0.0028906 -0.632 0.0047264 -0.93176 z"
       id="path42" />
  </g>
  <g
     id="SvgjsG2625"
     featurekey="nameFeature-1"
     transform="matrix(0.792690864897112,0,0,0.792690864897112,96.35395267696047,41.775914547382214)"
     fill="#ffffff">
    <path
       d="M33.209 19.299 c1.8355 1.8198 1.8204 4.452 1.7971 8.4364 c-0.0018359 0.29664 -0.0033984 0.604 -0.0046876 0.92236 c-0.0089064 2.3647 -0.015195 4.0732 -0.26344 5.514 c-0.21137 1.2284 -0.69948 2.9991 -2.4872 4.1908 c-2.2642 1.5093 -5.6464 1.5434 -13.056 1.6174 c-1.1572 0.011524 -2.2245 0.020156 -3.2091 0.020156 c-5.8708 0 -8.822 -0.31074 -10.708 -2.1844 c-1.964 -1.9514 -1.953 -4.8252 -1.9368 -9.1752 c0.018047 -4.8536 0.029024 -7.7832 2.4894 -9.602 c2.1227 -1.569 5.2056 -1.6103 11.96 -1.7011 l1.3479 -0.018555 c8.4176 -0.12031 11.902 -0.17027 14.071 1.9805 z M30.343 27.708 c0.013086 -2.2896 0.026914 -4.6576 -0.41728 -5.0976 c-0.55112 -0.54644 -3.0246 -0.67276 -6.3168 -0.67276 c-1.3547 0 -2.8484 0.021445 -4.4036 0.043672 l-1.3521 0.018555 c-4.8388 0.064884 -8.3348 0.11195 -9.25 0.78812 c-0.5776 0.42692 -0.587 2.9488 -0.59796 5.8692 c-0.010195 2.7118 -0.019883 5.2732 0.56032 5.8496 c0.9108 0.90508 5.8276 0.85564 10.583 0.80856 c5.4604 -0.054412 9.4056 -0.093908 10.516 -0.8342 c0.65372 -0.4358 0.66208 -2.7032 0.67384 -5.8416 c0.0010547 -0.32148 0.0028906 -0.632 0.0047264 -0.93176 z M70.355 35.114 l2.324 -0.034844 l0.069572 4.6484 l-2.3241 0.034805 c-0.36176 0.005508 -0.77084 0.011797 -1.2174 0.011797 c-3.2279 0 -8.4052 -0.32016 -11.676 -3.5423 c-1.456 -1.4345 -2.3731 -3.258 -2.7396 -5.44 l-8.4109 0 l-0.033203 8.9792 l-4.6492 -0.017266 l0.074804 -20.255 l0 -2.327 l0.0086328 0 l0 -0.0086328 l2.3223 0.0086328 l21.902 0 c2.9457 0 7.3276 1.8136 7.3276 6.8096 c0 4.9964 -4.0724 6.81 -6.8096 6.81 l-6.9651 0 c0.25086 0.8504 0.65684 1.5585 1.2347 2.1279 c2.337 2.3019 7.216 2.2292 9.5608 2.1939 z M46.422799999999995 26.143 l20.081 -0.000039062 c0.20297 -0.0070704 0.80852 -0.083436 1.3076 -0.35942 c0.43216 -0.2391 0.87372 -0.64012 0.87372 -1.8015 c0 -0.93384 -0.31598 -1.4394 -1.1276 -1.8033 c-0.73764 -0.33062 -1.543 -0.3573 -1.5506 -0.3573 l-19.584 0 l0 4.3216 z M111.57900000000001 35.3 l0.080272 4.6484 l-2.3241 0.04004 c-0.030078 0.0005078 -2.055 0.034258 -6.0152 0.034258 c-2.0063 0 -4.5092 -0.0089064 -7.5012 -0.034805 c-4.8264 -0.042108 -8.6856 -1.0842 -11.47 -3.0979 c-2.767 -2.0014 -4.2908 -4.9124 -4.2908 -8.1972 c0 -3.2826 1.5371 -6.2004 4.328 -8.2148 c2.766 -1.9969 6.7232 -3.0621 11.444 -3.0804 c8.882 -0.034258 13.438 0.00054688 13.483 0.00082032 l2.3244 0.01832 l-0.036641 4.6492 l-2.3244 -0.01832 c-0.044728 -0.0005078 -4.5784 -0.035039 -13.429 -0.00078124 c-6.8716 0.02668 -11.14 2.5732 -11.14 6.6464 c0 1.8039 0.79624 3.2946 2.3662 4.43 c1.9587 1.4167 4.9968 2.1832 8.7852 2.2161 c8.8288 0.077148 13.352 0.0017969 13.396 0.0010156 z M145.558 17.234 l4.6951 0 l0 22.815 l-4.6951 0 l0 -9.0599 l-22.484 0 l0 9.0599 l-4.6954 0 l0 -22.815 l4.6954 0 l0 9.0599 l22.484 0 l0 -9.0599 z M188.814 21.902 l-27.18 0.000039062 l0 4.3726 l18.128 0.0675 l-0.017266 4.6956 l-18.111 -0.0675 l0 4.3564 l27.18 0 l0 4.6954 l-31.875 0 l0 -22.815 l31.875 0 l0 4.6951 z M201.076 22.009 c-0.43632 0.24117 -0.88236 0.64612 -0.88236 1.8193 c0 0.91448 0.29558 1.4144 1.0547 1.7822 c0.76772 0.37195 1.6239 0.39914 1.6671 0.4002 l17.067 0.06672 c2.9656 0 7.3912 1.8316 7.3912 6.8776 s-4.1128 6.8776 -6.8776 6.8776 l-24.997 0 l0 -4.6954 l24.977 0 c0.2048 -0.0070704 0.81636 -0.08422 1.3204 -0.36305 c0.43656 -0.24144 0.88256 -0.64636 0.88256 -1.8193 c0 -0.91448 -0.29558 -1.4144 -1.0547 -1.7822 c-0.7654 -0.37094 -1.6208 -0.39894 -1.6686 -0.40024 l-17.056 -0.07586 l0 0.0091406 c-2.975 0 -7.4008 -1.8316 -7.4008 -6.8776 s4.1128 -6.8776 6.8776 -6.8776 l24.997 0 l0 4.6954 l-24.976 0 c-0.20457 0.0070704 -0.81668 0.08422 -1.321 0.36305 z M234.0585 16.95 l31.875 0 l0 4.6954 l-13.591 0 l0 18.186 l-4.6951 0 l0 -18.186 l-13.589 0 l0 -4.6954 z M301.315 35.114 l2.324 -0.034844 l0.069572 4.6484 l-2.3241 0.034805 c-0.36176 0.005508 -0.77084 0.011797 -1.2174 0.011797 c-3.2279 0 -8.4052 -0.32016 -11.676 -3.5423 c-1.456 -1.4345 -2.3731 -3.258 -2.7396 -5.44 l-8.4109 0 l-0.033203 8.9792 l-4.6492 -0.017266 l0.074804 -20.255 l0 -2.327 l0.0086328 0 l0 -0.0086328 l2.3223 0.0086328 l21.902 0 c2.9457 0 7.3276 1.8136 7.3276 6.8096 c0 4.9964 -4.0724 6.81 -6.8096 6.81 l-6.9651 0 c0.25086 0.8504 0.65684 1.5585 1.2347 2.1279 c2.337 2.3019 7.216 2.2292 9.5608 2.1939 z M277.3828 26.143 l20.081 -0.000039062 c0.20297 -0.0070704 0.80852 -0.083436 1.3076 -0.35942 c0.43216 -0.2391 0.87372 -0.64012 0.87372 -1.8015 c0 -0.93384 -0.31598 -1.4394 -1.1276 -1.8033 c-0.73764 -0.33062 -1.543 -0.3573 -1.5506 -0.3573 l-19.584 0 l0 4.3216 z M327.351 15.421 l18.353 24.38 l-5.9015 0 l-5.132 -6.7948 l-14.639 0 l-5.0572 6.7948 l-5.8354 0 z M323.552 28.311 l7.5966 0 l-3.7984 -5.0644 z"
       id="path45" />
  </g>
</svg>
